# Open BFME authored multi-part mesh
o eagle
g body
v -0.4000 1.5000 -0.6000
v 0.4000 1.5000 -0.6000
v 0.4000 1.5000 0.6000
v -0.4000 1.5000 0.6000
v -0.4000 2.1000 -0.6000
v 0.4000 2.1000 -0.6000
v 0.4000 2.1000 0.6000
v -0.4000 2.1000 0.6000
f 1 2 3 4
f 5 6 7 8
f 1 2 6 5
f 2 3 7 6
f 3 4 8 7
f 4 1 5 8
g wingl
v -2.6000 1.6000 -0.4000
v -0.4000 1.6000 -0.4000
v -0.4000 1.6000 0.4000
v -2.6000 1.6000 0.4000
v -2.6000 1.7200 -0.4000
v -0.4000 1.7200 -0.4000
v -0.4000 1.7200 0.4000
v -2.6000 1.7200 0.4000
f 9 10 11 12
f 13 14 15 16
f 9 10 14 13
f 10 11 15 14
f 11 12 16 15
f 12 9 13 16
g wingr
v 0.4000 1.6000 -0.4000
v 2.6000 1.6000 -0.4000
v 2.6000 1.6000 0.4000
v 0.4000 1.6000 0.4000
v 0.4000 1.7200 -0.4000
v 2.6000 1.7200 -0.4000
v 2.6000 1.7200 0.4000
v 0.4000 1.7200 0.4000
f 17 18 19 20
f 21 22 23 24
f 17 18 22 21
f 18 19 23 22
f 19 20 24 23
f 20 17 21 24
g head
v 0.2200 1.7000 0.7000
v 0.1556 1.7000 0.8556
v 0.0000 1.7000 0.9200
v -0.1556 1.7000 0.8556
v -0.2200 1.7000 0.7000
v -0.1556 1.7000 0.5444
v -0.0000 1.7000 0.4800
v 0.1556 1.7000 0.5444
v 0.2200 2.0500 0.7000
v 0.1556 2.0500 0.8556
v 0.0000 2.0500 0.9200
v -0.1556 2.0500 0.8556
v -0.2200 2.0500 0.7000
v -0.1556 2.0500 0.5444
v -0.0000 2.0500 0.4800
v 0.1556 2.0500 0.5444
v 0.0000 1.7000 0.7000
v 0.0000 2.0500 0.7000
f 25 26 34 33
f 26 27 35 34
f 27 28 36 35
f 28 29 37 36
f 29 30 38 37
f 30 31 39 38
f 31 32 40 39
f 32 25 33 40
f 41 25 26
f 42 33 34
f 41 26 27
f 42 34 35
f 41 27 28
f 42 35 36
f 41 28 29
f 42 36 37
f 41 29 30
f 42 37 38
f 41 30 31
f 42 38 39
f 41 31 32
f 42 39 40
f 41 32 25
f 42 40 33
