# Open BFME authored multi-part mesh
o legolas
g lleg
v -0.0150 0.0000 0.0000
v -0.0501 0.0000 0.0849
v -0.1350 0.0000 0.1200
v -0.2199 0.0000 0.0849
v -0.2550 0.0000 0.0000
v -0.2199 0.0000 -0.0849
v -0.1350 0.0000 -0.1200
v -0.0501 0.0000 -0.0849
v -0.0150 0.7000 0.0000
v -0.0501 0.7000 0.0849
v -0.1350 0.7000 0.1200
v -0.2199 0.7000 0.0849
v -0.2550 0.7000 0.0000
v -0.2199 0.7000 -0.0849
v -0.1350 0.7000 -0.1200
v -0.0501 0.7000 -0.0849
v -0.1350 0.0000 0.0000
v -0.1350 0.7000 0.0000
f 1 2 10 9
f 2 3 11 10
f 3 4 12 11
f 4 5 13 12
f 5 6 14 13
f 6 7 15 14
f 7 8 16 15
f 8 1 9 16
f 17 1 2
f 18 9 10
f 17 2 3
f 18 10 11
f 17 3 4
f 18 11 12
f 17 4 5
f 18 12 13
f 17 5 6
f 18 13 14
f 17 6 7
f 18 14 15
f 17 7 8
f 18 15 16
f 17 8 1
f 18 16 9
g rleg
v 0.2550 0.0000 0.0000
v 0.2199 0.0000 0.0849
v 0.1350 0.0000 0.1200
v 0.0501 0.0000 0.0849
v 0.0150 0.0000 0.0000
v 0.0501 0.0000 -0.0849
v 0.1350 0.0000 -0.1200
v 0.2199 0.0000 -0.0849
v 0.2550 0.7000 0.0000
v 0.2199 0.7000 0.0849
v 0.1350 0.7000 0.1200
v 0.0501 0.7000 0.0849
v 0.0150 0.7000 0.0000
v 0.0501 0.7000 -0.0849
v 0.1350 0.7000 -0.1200
v 0.2199 0.7000 -0.0849
v 0.1350 0.0000 0.0000
v 0.1350 0.7000 0.0000
f 19 20 28 27
f 20 21 29 28
f 21 22 30 29
f 22 23 31 30
f 23 24 32 31
f 24 25 33 32
f 25 26 34 33
f 26 19 27 34
f 35 19 20
f 36 27 28
f 35 20 21
f 36 28 29
f 35 21 22
f 36 29 30
f 35 22 23
f 36 30 31
f 35 23 24
f 36 31 32
f 35 24 25
f 36 32 33
f 35 25 26
f 36 33 34
f 35 26 19
f 36 34 27
g torso
v -0.2250 0.7000 -0.1400
v 0.2250 0.7000 -0.1400
v 0.2250 0.7000 0.1400
v -0.2250 0.7000 0.1400
v -0.2250 1.4000 -0.1400
v 0.2250 1.4000 -0.1400
v 0.2250 1.4000 0.1400
v -0.2250 1.4000 0.1400
f 37 38 39 40
f 41 42 43 44
f 37 38 42 41
f 38 39 43 42
f 39 40 44 43
f 40 37 41 44
g head
v 0.1600 1.4000 0.0000
v 0.1131 1.4000 0.1131
v 0.0000 1.4000 0.1600
v -0.1131 1.4000 0.1131
v -0.1600 1.4000 0.0000
v -0.1131 1.4000 -0.1131
v -0.0000 1.4000 -0.1600
v 0.1131 1.4000 -0.1131
v 0.1600 1.6800 0.0000
v 0.1131 1.6800 0.1131
v 0.0000 1.6800 0.1600
v -0.1131 1.6800 0.1131
v -0.1600 1.6800 0.0000
v -0.1131 1.6800 -0.1131
v -0.0000 1.6800 -0.1600
v 0.1131 1.6800 -0.1131
v 0.0000 1.4000 0.0000
v 0.0000 1.6800 0.0000
f 45 46 54 53
f 46 47 55 54
f 47 48 56 55
f 48 49 57 56
f 49 50 58 57
f 50 51 59 58
f 51 52 60 59
f 52 45 53 60
f 61 45 46
f 62 53 54
f 61 46 47
f 62 54 55
f 61 47 48
f 62 55 56
f 61 48 49
f 62 56 57
f 61 49 50
f 62 57 58
f 61 50 51
f 62 58 59
f 61 51 52
f 62 59 60
f 61 52 45
f 62 60 53
g larm
v -0.2350 1.1000 0.0000
v -0.2750 1.1000 0.0693
v -0.3550 1.1000 0.0693
v -0.3950 1.1000 0.0000
v -0.3550 1.1000 -0.0693
v -0.2750 1.1000 -0.0693
v -0.2350 1.6500 0.0000
v -0.2750 1.6500 0.0693
v -0.3550 1.6500 0.0693
v -0.3950 1.6500 0.0000
v -0.3550 1.6500 -0.0693
v -0.2750 1.6500 -0.0693
v -0.3150 1.1000 0.0000
v -0.3150 1.6500 0.0000
f 63 64 70 69
f 64 65 71 70
f 65 66 72 71
f 66 67 73 72
f 67 68 74 73
f 68 63 69 74
f 75 63 64
f 76 69 70
f 75 64 65
f 76 70 71
f 75 65 66
f 76 71 72
f 75 66 67
f 76 72 73
f 75 67 68
f 76 73 74
f 75 68 63
f 76 74 69
g rarm
v 0.3950 1.1000 0.0000
v 0.3550 1.1000 0.0693
v 0.2750 1.1000 0.0693
v 0.2350 1.1000 0.0000
v 0.2750 1.1000 -0.0693
v 0.3550 1.1000 -0.0693
v 0.3950 1.6500 0.0000
v 0.3550 1.6500 0.0693
v 0.2750 1.6500 0.0693
v 0.2350 1.6500 0.0000
v 0.2750 1.6500 -0.0693
v 0.3550 1.6500 -0.0693
v 0.3150 1.1000 0.0000
v 0.3150 1.6500 0.0000
f 77 78 84 83
f 78 79 85 84
f 79 80 86 85
f 80 81 87 86
f 81 82 88 87
f 82 77 83 88
f 89 77 78
f 90 83 84
f 89 78 79
f 90 84 85
f 89 79 80
f 90 85 86
f 89 80 81
f 90 86 87
f 89 81 82
f 90 87 88
f 89 82 77
f 90 88 83
