# Open BFME authored multi-part mesh
o shelob
g body
v -0.6000 0.5000 -0.7500
v 0.6000 0.5000 -0.7500
v 0.6000 0.5000 0.7500
v -0.6000 0.5000 0.7500
v -0.6000 1.1000 -0.7500
v 0.6000 1.1000 -0.7500
v 0.6000 1.1000 0.7500
v -0.6000 1.1000 0.7500
f 1 2 3 4
f 5 6 7 8
f 1 2 6 5
f 2 3 7 6
f 3 4 8 7
f 4 1 5 8
g head
v 0.3500 0.8000 0.9000
v 0.2475 0.8000 1.1475
v 0.0000 0.8000 1.2500
v -0.2475 0.8000 1.1475
v -0.3500 0.8000 0.9000
v -0.2475 0.8000 0.6525
v -0.0000 0.8000 0.5500
v 0.2475 0.8000 0.6525
v 0.3500 1.3000 0.9000
v 0.2475 1.3000 1.1475
v 0.0000 1.3000 1.2500
v -0.2475 1.3000 1.1475
v -0.3500 1.3000 0.9000
v -0.2475 1.3000 0.6525
v -0.0000 1.3000 0.5500
v 0.2475 1.3000 0.6525
v 0.0000 0.8000 0.9000
v 0.0000 1.3000 0.9000
f 9 10 18 17
f 10 11 19 18
f 11 12 20 19
f 12 13 21 20
f 13 14 22 21
f 14 15 23 22
f 15 16 24 23
f 16 9 17 24
f 25 9 10
f 26 17 18
f 25 10 11
f 26 18 19
f 25 11 12
f 26 19 20
f 25 12 13
f 26 20 21
f 25 13 14
f 26 21 22
f 25 14 15
f 26 22 23
f 25 15 16
f 26 23 24
f 25 16 9
f 26 24 17
g leg0
v -0.6600 0.2000 -0.1000
v -0.5400 0.2000 -0.1000
v -0.5400 0.2000 0.9000
v -0.6600 0.2000 0.9000
v -0.6600 0.3200 -0.1000
v -0.5400 0.3200 -0.1000
v -0.5400 0.3200 0.9000
v -0.6600 0.3200 0.9000
f 27 28 29 30
f 31 32 33 34
f 27 28 32 31
f 28 29 33 32
f 29 30 34 33
f 30 27 31 34
g leg1
v -0.2600 0.2000 -0.1000
v -0.1400 0.2000 -0.1000
v -0.1400 0.2000 0.9000
v -0.2600 0.2000 0.9000
v -0.2600 0.3200 -0.1000
v -0.1400 0.3200 -0.1000
v -0.1400 0.3200 0.9000
v -0.2600 0.3200 0.9000
f 35 36 37 38
f 39 40 41 42
f 35 36 40 39
f 36 37 41 40
f 37 38 42 41
f 38 35 39 42
g leg2
v 0.1400 0.2000 -0.1000
v 0.2600 0.2000 -0.1000
v 0.2600 0.2000 0.9000
v 0.1400 0.2000 0.9000
v 0.1400 0.3200 -0.1000
v 0.2600 0.3200 -0.1000
v 0.2600 0.3200 0.9000
v 0.1400 0.3200 0.9000
f 43 44 45 46
f 47 48 49 50
f 43 44 48 47
f 44 45 49 48
f 45 46 50 49
f 46 43 47 50
g leg3
v 0.5400 0.2000 -0.1000
v 0.6600 0.2000 -0.1000
v 0.6600 0.2000 0.9000
v 0.5400 0.2000 0.9000
v 0.5400 0.3200 -0.1000
v 0.6600 0.3200 -0.1000
v 0.6600 0.3200 0.9000
v 0.5400 0.3200 0.9000
f 51 52 53 54
f 55 56 57 58
f 51 52 56 55
f 52 53 57 56
f 53 54 58 57
f 54 51 55 58
g leg4
v -0.6600 0.2000 -0.9000
v -0.5400 0.2000 -0.9000
v -0.5400 0.2000 0.1000
v -0.6600 0.2000 0.1000
v -0.6600 0.3200 -0.9000
v -0.5400 0.3200 -0.9000
v -0.5400 0.3200 0.1000
v -0.6600 0.3200 0.1000
f 59 60 61 62
f 63 64 65 66
f 59 60 64 63
f 60 61 65 64
f 61 62 66 65
f 62 59 63 66
g leg5
v -0.2600 0.2000 -0.9000
v -0.1400 0.2000 -0.9000
v -0.1400 0.2000 0.1000
v -0.2600 0.2000 0.1000
v -0.2600 0.3200 -0.9000
v -0.1400 0.3200 -0.9000
v -0.1400 0.3200 0.1000
v -0.2600 0.3200 0.1000
f 67 68 69 70
f 71 72 73 74
f 67 68 72 71
f 68 69 73 72
f 69 70 74 73
f 70 67 71 74
g leg6
v 0.1400 0.2000 -0.9000
v 0.2600 0.2000 -0.9000
v 0.2600 0.2000 0.1000
v 0.1400 0.2000 0.1000
v 0.1400 0.3200 -0.9000
v 0.2600 0.3200 -0.9000
v 0.2600 0.3200 0.1000
v 0.1400 0.3200 0.1000
f 75 76 77 78
f 79 80 81 82
f 75 76 80 79
f 76 77 81 80
f 77 78 82 81
f 78 75 79 82
g leg7
v 0.5400 0.2000 -0.9000
v 0.6600 0.2000 -0.9000
v 0.6600 0.2000 0.1000
v 0.5400 0.2000 0.1000
v 0.5400 0.3200 -0.9000
v 0.6600 0.3200 -0.9000
v 0.6600 0.3200 0.1000
v 0.5400 0.3200 0.1000
f 83 84 85 86
f 87 88 89 90
f 83 84 88 87
f 84 85 89 88
f 85 86 90 89
f 86 83 87 90
g abdomen
v -0.8000 0.6000 -1.2000
v 0.8000 0.6000 -1.2000
v 0.8000 0.6000 0.6000
v -0.8000 0.6000 0.6000
v -0.8000 1.5000 -1.2000
v 0.8000 1.5000 -1.2000
v 0.8000 1.5000 0.6000
v -0.8000 1.5000 0.6000
f 91 92 93 94
f 95 96 97 98
f 91 92 96 95
f 92 93 97 96
f 93 94 98 97
f 94 91 95 98
