# Open BFME authored multi-part mesh
o spiderrider
g body
v -0.6000 0.5000 -0.7500
v 0.6000 0.5000 -0.7500
v 0.6000 0.5000 0.7500
v -0.6000 0.5000 0.7500
v -0.6000 1.1000 -0.7500
v 0.6000 1.1000 -0.7500
v 0.6000 1.1000 0.7500
v -0.6000 1.1000 0.7500
f 1 2 3 4
f 5 6 7 8
f 1 2 6 5
f 2 3 7 6
f 3 4 8 7
f 4 1 5 8
g head
v 0.3500 0.8000 0.9000
v 0.2475 0.8000 1.1475
v 0.0000 0.8000 1.2500
v -0.2475 0.8000 1.1475
v -0.3500 0.8000 0.9000
v -0.2475 0.8000 0.6525
v -0.0000 0.8000 0.5500
v 0.2475 0.8000 0.6525
v 0.3500 1.3000 0.9000
v 0.2475 1.3000 1.1475
v 0.0000 1.3000 1.2500
v -0.2475 1.3000 1.1475
v -0.3500 1.3000 0.9000
v -0.2475 1.3000 0.6525
v -0.0000 1.3000 0.5500
v 0.2475 1.3000 0.6525
v 0.0000 0.8000 0.9000
v 0.0000 1.3000 0.9000
f 9 10 18 17
f 10 11 19 18
f 11 12 20 19
f 12 13 21 20
f 13 14 22 21
f 14 15 23 22
f 15 16 24 23
f 16 9 17 24
f 25 9 10
f 26 17 18
f 25 10 11
f 26 18 19
f 25 11 12
f 26 19 20
f 25 12 13
f 26 20 21
f 25 13 14
f 26 21 22
f 25 14 15
f 26 22 23
f 25 15 16
f 26 23 24
f 25 16 9
f 26 24 17
g leg0
v -0.6600 0.2000 -0.1000
v -0.5400 0.2000 -0.1000
v -0.5400 0.2000 0.9000
v -0.6600 0.2000 0.9000
v -0.6600 0.3200 -0.1000
v -0.5400 0.3200 -0.1000
v -0.5400 0.3200 0.9000
v -0.6600 0.3200 0.9000
f 27 28 29 30
f 31 32 33 34
f 27 28 32 31
f 28 29 33 32
f 29 30 34 33
f 30 27 31 34
g leg1
v -0.2600 0.2000 -0.1000
v -0.1400 0.2000 -0.1000
v -0.1400 0.2000 0.9000
v -0.2600 0.2000 0.9000
v -0.2600 0.3200 -0.1000
v -0.1400 0.3200 -0.1000
v -0.1400 0.3200 0.9000
v -0.2600 0.3200 0.9000
f 35 36 37 38
f 39 40 41 42
f 35 36 40 39
f 36 37 41 40
f 37 38 42 41
f 38 35 39 42
g leg2
v 0.1400 0.2000 -0.1000
v 0.2600 0.2000 -0.1000
v 0.2600 0.2000 0.9000
v 0.1400 0.2000 0.9000
v 0.1400 0.3200 -0.1000
v 0.2600 0.3200 -0.1000
v 0.2600 0.3200 0.9000
v 0.1400 0.3200 0.9000
f 43 44 45 46
f 47 48 49 50
f 43 44 48 47
f 44 45 49 48
f 45 46 50 49
f 46 43 47 50
g leg3
v 0.5400 0.2000 -0.1000
v 0.6600 0.2000 -0.1000
v 0.6600 0.2000 0.9000
v 0.5400 0.2000 0.9000
v 0.5400 0.3200 -0.1000
v 0.6600 0.3200 -0.1000
v 0.6600 0.3200 0.9000
v 0.5400 0.3200 0.9000
f 51 52 53 54
f 55 56 57 58
f 51 52 56 55
f 52 53 57 56
f 53 54 58 57
f 54 51 55 58
g leg4
v -0.6600 0.2000 -0.9000
v -0.5400 0.2000 -0.9000
v -0.5400 0.2000 0.1000
v -0.6600 0.2000 0.1000
v -0.6600 0.3200 -0.9000
v -0.5400 0.3200 -0.9000
v -0.5400 0.3200 0.1000
v -0.6600 0.3200 0.1000
f 59 60 61 62
f 63 64 65 66
f 59 60 64 63
f 60 61 65 64
f 61 62 66 65
f 62 59 63 66
g leg5
v -0.2600 0.2000 -0.9000
v -0.1400 0.2000 -0.9000
v -0.1400 0.2000 0.1000
v -0.2600 0.2000 0.1000
v -0.2600 0.3200 -0.9000
v -0.1400 0.3200 -0.9000
v -0.1400 0.3200 0.1000
v -0.2600 0.3200 0.1000
f 67 68 69 70
f 71 72 73 74
f 67 68 72 71
f 68 69 73 72
f 69 70 74 73
f 70 67 71 74
g leg6
v 0.1400 0.2000 -0.9000
v 0.2600 0.2000 -0.9000
v 0.2600 0.2000 0.1000
v 0.1400 0.2000 0.1000
v 0.1400 0.3200 -0.9000
v 0.2600 0.3200 -0.9000
v 0.2600 0.3200 0.1000
v 0.1400 0.3200 0.1000
f 75 76 77 78
f 79 80 81 82
f 75 76 80 79
f 76 77 81 80
f 77 78 82 81
f 78 75 79 82
g leg7
v 0.5400 0.2000 -0.9000
v 0.6600 0.2000 -0.9000
v 0.6600 0.2000 0.1000
v 0.5400 0.2000 0.1000
v 0.5400 0.3200 -0.9000
v 0.6600 0.3200 -0.9000
v 0.6600 0.3200 0.1000
v 0.5400 0.3200 0.1000
f 83 84 85 86
f 87 88 89 90
f 83 84 88 87
f 84 85 89 88
f 85 86 90 89
f 86 83 87 90
g lleg
v -0.0840 0.9000 0.0000
v -0.1033 0.9000 0.0467
v -0.1500 0.9000 0.0660
v -0.1967 0.9000 0.0467
v -0.2160 0.9000 0.0000
v -0.1967 0.9000 -0.0467
v -0.1500 0.9000 -0.0660
v -0.1033 0.9000 -0.0467
v -0.0840 1.2850 0.0000
v -0.1033 1.2850 0.0467
v -0.1500 1.2850 0.0660
v -0.1967 1.2850 0.0467
v -0.2160 1.2850 0.0000
v -0.1967 1.2850 -0.0467
v -0.1500 1.2850 -0.0660
v -0.1033 1.2850 -0.0467
v -0.1500 0.9000 0.0000
v -0.1500 1.2850 0.0000
f 91 92 100 99
f 92 93 101 100
f 93 94 102 101
f 94 95 103 102
f 95 96 104 103
f 96 97 105 104
f 97 98 106 105
f 98 91 99 106
f 107 91 92
f 108 99 100
f 107 92 93
f 108 100 101
f 107 93 94
f 108 101 102
f 107 94 95
f 108 102 103
f 107 95 96
f 108 103 104
f 107 96 97
f 108 104 105
f 107 97 98
f 108 105 106
f 107 98 91
f 108 106 99
g rleg
v 0.2160 0.9000 0.0000
v 0.1967 0.9000 0.0467
v 0.1500 0.9000 0.0660
v 0.1033 0.9000 0.0467
v 0.0840 0.9000 0.0000
v 0.1033 0.9000 -0.0467
v 0.1500 0.9000 -0.0660
v 0.1967 0.9000 -0.0467
v 0.2160 1.2850 0.0000
v 0.1967 1.2850 0.0467
v 0.1500 1.2850 0.0660
v 0.1033 1.2850 0.0467
v 0.0840 1.2850 0.0000
v 0.1033 1.2850 -0.0467
v 0.1500 1.2850 -0.0660
v 0.1967 1.2850 -0.0467
v 0.1500 0.9000 0.0000
v 0.1500 1.2850 0.0000
f 109 110 118 117
f 110 111 119 118
f 111 112 120 119
f 112 113 121 120
f 113 114 122 121
f 114 115 123 122
f 115 116 124 123
f 116 109 117 124
f 125 109 110
f 126 117 118
f 125 110 111
f 126 118 119
f 125 111 112
f 126 119 120
f 125 112 113
f 126 120 121
f 125 113 114
f 126 121 122
f 125 114 115
f 126 122 123
f 125 115 116
f 126 123 124
f 125 116 109
f 126 124 117
g torso
v -0.1375 1.2850 -0.0770
v 0.1375 1.2850 -0.0770
v 0.1375 1.2850 0.0770
v -0.1375 1.2850 0.0770
v -0.1375 1.6700 -0.0770
v 0.1375 1.6700 -0.0770
v 0.1375 1.6700 0.0770
v -0.1375 1.6700 0.0770
f 127 128 129 130
f 131 132 133 134
f 127 128 132 131
f 128 129 133 132
f 129 130 134 133
f 130 127 131 134
g head
v 0.0880 1.6700 0.0000
v 0.0622 1.6700 0.0622
v 0.0000 1.6700 0.0880
v -0.0622 1.6700 0.0622
v -0.0880 1.6700 0.0000
v -0.0622 1.6700 -0.0622
v -0.0000 1.6700 -0.0880
v 0.0622 1.6700 -0.0622
v 0.0880 1.8240 0.0000
v 0.0622 1.8240 0.0622
v 0.0000 1.8240 0.0880
v -0.0622 1.8240 0.0622
v -0.0880 1.8240 0.0000
v -0.0622 1.8240 -0.0622
v -0.0000 1.8240 -0.0880
v 0.0622 1.8240 -0.0622
v 0.0000 1.6700 0.0000
v 0.0000 1.8240 0.0000
f 135 136 144 143
f 136 137 145 144
f 137 138 146 145
f 138 139 147 146
f 139 140 148 147
f 140 141 149 148
f 141 142 150 149
f 142 135 143 150
f 151 135 136
f 152 143 144
f 151 136 137
f 152 144 145
f 151 137 138
f 152 145 146
f 151 138 139
f 152 146 147
f 151 139 140
f 152 147 148
f 151 140 141
f 152 148 149
f 151 141 142
f 152 149 150
f 151 142 135
f 152 150 143
g larm
v -0.3060 1.5050 0.0000
v -0.3280 1.5050 0.0381
v -0.3720 1.5050 0.0381
v -0.3940 1.5050 0.0000
v -0.3720 1.5050 -0.0381
v -0.3280 1.5050 -0.0381
v -0.3060 1.8075 0.0000
v -0.3280 1.8075 0.0381
v -0.3720 1.8075 0.0381
v -0.3940 1.8075 0.0000
v -0.3720 1.8075 -0.0381
v -0.3280 1.8075 -0.0381
v -0.3500 1.5050 0.0000
v -0.3500 1.8075 0.0000
f 153 154 160 159
f 154 155 161 160
f 155 156 162 161
f 156 157 163 162
f 157 158 164 163
f 158 153 159 164
f 165 153 154
f 166 159 160
f 165 154 155
f 166 160 161
f 165 155 156
f 166 161 162
f 165 156 157
f 166 162 163
f 165 157 158
f 166 163 164
f 165 158 153
f 166 164 159
g rarm
v 0.3940 1.5050 0.0000
v 0.3720 1.5050 0.0381
v 0.3280 1.5050 0.0381
v 0.3060 1.5050 0.0000
v 0.3280 1.5050 -0.0381
v 0.3720 1.5050 -0.0381
v 0.3940 1.8075 0.0000
v 0.3720 1.8075 0.0381
v 0.3280 1.8075 0.0381
v 0.3060 1.8075 0.0000
v 0.3280 1.8075 -0.0381
v 0.3720 1.8075 -0.0381
v 0.3500 1.5050 0.0000
v 0.3500 1.8075 0.0000
f 167 168 174 173
f 168 169 175 174
f 169 170 176 175
f 170 171 177 176
f 171 172 178 177
f 172 167 173 178
f 179 167 168
f 180 173 174
f 179 168 169
f 180 174 175
f 179 169 170
f 180 175 176
f 179 170 171
f 180 176 177
f 179 171 172
f 180 177 178
f 179 172 167
f 180 178 173
