# Open BFME authored multi-part mesh
o trebuchet
g base
v -1.2500 0.0000 -0.7500
v 1.2500 0.0000 -0.7500
v 1.2500 0.0000 0.7500
v -1.2500 0.0000 0.7500
v -1.2500 0.4000 -0.7500
v 1.2500 0.4000 -0.7500
v 1.2500 0.4000 0.7500
v -1.2500 0.4000 0.7500
f 1 2 3 4
f 5 6 7 8
f 1 2 6 5
f 2 3 7 6
f 3 4 8 7
f 4 1 5 8
g mast
v -0.1500 0.4000 -0.1500
v 0.1500 0.4000 -0.1500
v 0.1500 0.4000 0.1500
v -0.1500 0.4000 0.1500
v -0.1500 2.9000 -0.1500
v 0.1500 2.9000 -0.1500
v 0.1500 2.9000 0.1500
v -0.1500 2.9000 0.1500
f 9 10 11 12
f 13 14 15 16
f 9 10 14 13
f 10 11 15 14
f 11 12 16 15
f 12 9 13 16
g arm
v -1.7500 2.7000 -0.1250
v 1.7500 2.7000 -0.1250
v 1.7500 2.7000 0.1250
v -1.7500 2.7000 0.1250
v -1.7500 2.9500 -0.1250
v 1.7500 2.9500 -0.1250
v 1.7500 2.9500 0.1250
v -1.7500 2.9500 0.1250
f 17 18 19 20
f 21 22 23 24
f 17 18 22 21
f 18 19 23 22
f 19 20 24 23
f 20 17 21 24
g counter
v -1.8500 2.3000 -0.2500
v -1.3500 2.3000 -0.2500
v -1.3500 2.3000 0.2500
v -1.8500 2.3000 0.2500
v -1.8500 2.8000 -0.2500
v -1.3500 2.8000 -0.2500
v -1.3500 2.8000 0.2500
v -1.8500 2.8000 0.2500
f 25 26 27 28
f 29 30 31 32
f 25 26 30 29
f 26 27 31 30
f 27 28 32 31
f 28 25 29 32
