# Open BFME authored multi-part mesh
o warg
g body
v -0.6300 0.3600 -0.2025
v 0.6300 0.3600 -0.2025
v 0.6300 0.3600 0.2025
v -0.6300 0.3600 0.2025
v -0.6300 0.8550 -0.2025
v 0.6300 0.8550 -0.2025
v 0.6300 0.8550 0.2025
v -0.6300 0.8550 0.2025
f 1 2 3 4
f 5 6 7 8
f 1 2 6 5
f 2 3 7 6
f 3 4 8 7
f 4 1 5 8
g leg1
v -0.3600 0.0000 0.1350
v -0.4050 0.0000 0.2129
v -0.4950 0.0000 0.2129
v -0.5400 0.0000 0.1350
v -0.4950 0.0000 0.0571
v -0.4050 0.0000 0.0571
v -0.3600 0.4050 0.1350
v -0.4050 0.4050 0.2129
v -0.4950 0.4050 0.2129
v -0.5400 0.4050 0.1350
v -0.4950 0.4050 0.0571
v -0.4050 0.4050 0.0571
v -0.4500 0.0000 0.1350
v -0.4500 0.4050 0.1350
f 9 10 16 15
f 10 11 17 16
f 11 12 18 17
f 12 13 19 18
f 13 14 20 19
f 14 9 15 20
f 21 9 10
f 22 15 16
f 21 10 11
f 22 16 17
f 21 11 12
f 22 17 18
f 21 12 13
f 22 18 19
f 21 13 14
f 22 19 20
f 21 14 9
f 22 20 15
g leg2
v -0.3600 0.0000 -0.1350
v -0.4050 0.0000 -0.0571
v -0.4950 0.0000 -0.0571
v -0.5400 0.0000 -0.1350
v -0.4950 0.0000 -0.2129
v -0.4050 0.0000 -0.2129
v -0.3600 0.4050 -0.1350
v -0.4050 0.4050 -0.0571
v -0.4950 0.4050 -0.0571
v -0.5400 0.4050 -0.1350
v -0.4950 0.4050 -0.2129
v -0.4050 0.4050 -0.2129
v -0.4500 0.0000 -0.1350
v -0.4500 0.4050 -0.1350
f 23 24 30 29
f 24 25 31 30
f 25 26 32 31
f 26 27 33 32
f 27 28 34 33
f 28 23 29 34
f 35 23 24
f 36 29 30
f 35 24 25
f 36 30 31
f 35 25 26
f 36 31 32
f 35 26 27
f 36 32 33
f 35 27 28
f 36 33 34
f 35 28 23
f 36 34 29
g leg3
v 0.5400 0.0000 0.1350
v 0.4950 0.0000 0.2129
v 0.4050 0.0000 0.2129
v 0.3600 0.0000 0.1350
v 0.4050 0.0000 0.0571
v 0.4950 0.0000 0.0571
v 0.5400 0.4050 0.1350
v 0.4950 0.4050 0.2129
v 0.4050 0.4050 0.2129
v 0.3600 0.4050 0.1350
v 0.4050 0.4050 0.0571
v 0.4950 0.4050 0.0571
v 0.4500 0.0000 0.1350
v 0.4500 0.4050 0.1350
f 37 38 44 43
f 38 39 45 44
f 39 40 46 45
f 40 41 47 46
f 41 42 48 47
f 42 37 43 48
f 49 37 38
f 50 43 44
f 49 38 39
f 50 44 45
f 49 39 40
f 50 45 46
f 49 40 41
f 50 46 47
f 49 41 42
f 50 47 48
f 49 42 37
f 50 48 43
g leg4
v 0.5400 0.0000 -0.1350
v 0.4950 0.0000 -0.0571
v 0.4050 0.0000 -0.0571
v 0.3600 0.0000 -0.1350
v 0.4050 0.0000 -0.2129
v 0.4950 0.0000 -0.2129
v 0.5400 0.4050 -0.1350
v 0.4950 0.4050 -0.0571
v 0.4050 0.4050 -0.0571
v 0.3600 0.4050 -0.1350
v 0.4050 0.4050 -0.2129
v 0.4950 0.4050 -0.2129
v 0.4500 0.0000 -0.1350
v 0.4500 0.4050 -0.1350
f 51 52 58 57
f 52 53 59 58
f 53 54 60 59
f 54 55 61 60
f 55 56 62 61
f 56 51 57 62
f 63 51 52
f 64 57 58
f 63 52 53
f 64 58 59
f 63 53 54
f 64 59 60
f 63 54 55
f 64 60 61
f 63 55 56
f 64 61 62
f 63 56 51
f 64 62 57
g neck
v 0.4275 0.4950 -0.1350
v 0.8325 0.4950 -0.1350
v 0.8325 0.4950 0.1350
v 0.4275 0.4950 0.1350
v 0.4275 0.8100 -0.1350
v 0.8325 0.8100 -0.1350
v 0.8325 0.8100 0.1350
v 0.4275 0.8100 0.1350
f 65 66 67 68
f 69 70 71 72
f 65 66 70 69
f 66 67 71 70
f 67 68 72 71
f 68 65 69 72
g r_lleg
v -0.0660 0.7650 0.0000
v -0.0906 0.7650 0.0594
v -0.1500 0.7650 0.0840
v -0.2094 0.7650 0.0594
v -0.2340 0.7650 0.0000
v -0.2094 0.7650 -0.0594
v -0.1500 0.7650 -0.0840
v -0.0906 0.7650 -0.0594
v -0.0660 1.2550 0.0000
v -0.0906 1.2550 0.0594
v -0.1500 1.2550 0.0840
v -0.2094 1.2550 0.0594
v -0.2340 1.2550 0.0000
v -0.2094 1.2550 -0.0594
v -0.1500 1.2550 -0.0840
v -0.0906 1.2550 -0.0594
v -0.1500 0.7650 0.0000
v -0.1500 1.2550 0.0000
f 73 74 82 81
f 74 75 83 82
f 75 76 84 83
f 76 77 85 84
f 77 78 86 85
f 78 79 87 86
f 79 80 88 87
f 80 73 81 88
f 89 73 74
f 90 81 82
f 89 74 75
f 90 82 83
f 89 75 76
f 90 83 84
f 89 76 77
f 90 84 85
f 89 77 78
f 90 85 86
f 89 78 79
f 90 86 87
f 89 79 80
f 90 87 88
f 89 80 73
f 90 88 81
g r_rleg
v 0.2340 0.7650 0.0000
v 0.2094 0.7650 0.0594
v 0.1500 0.7650 0.0840
v 0.0906 0.7650 0.0594
v 0.0660 0.7650 0.0000
v 0.0906 0.7650 -0.0594
v 0.1500 0.7650 -0.0840
v 0.2094 0.7650 -0.0594
v 0.2340 1.2550 0.0000
v 0.2094 1.2550 0.0594
v 0.1500 1.2550 0.0840
v 0.0906 1.2550 0.0594
v 0.0660 1.2550 0.0000
v 0.0906 1.2550 -0.0594
v 0.1500 1.2550 -0.0840
v 0.2094 1.2550 -0.0594
v 0.1500 0.7650 0.0000
v 0.1500 1.2550 0.0000
f 91 92 100 99
f 92 93 101 100
f 93 94 102 101
f 94 95 103 102
f 95 96 104 103
f 96 97 105 104
f 97 98 106 105
f 98 91 99 106
f 107 91 92
f 108 99 100
f 107 92 93
f 108 100 101
f 107 93 94
f 108 101 102
f 107 94 95
f 108 102 103
f 107 95 96
f 108 103 104
f 107 96 97
f 108 104 105
f 107 97 98
f 108 105 106
f 107 98 91
f 108 106 99
g r_torso
v -0.1750 1.2550 -0.0980
v 0.1750 1.2550 -0.0980
v 0.1750 1.2550 0.0980
v -0.1750 1.2550 0.0980
v -0.1750 1.7450 -0.0980
v 0.1750 1.7450 -0.0980
v 0.1750 1.7450 0.0980
v -0.1750 1.7450 0.0980
f 109 110 111 112
f 113 114 115 116
f 109 110 114 113
f 110 111 115 114
f 111 112 116 115
f 112 109 113 116
g r_head
v 0.1120 1.7450 0.0000
v 0.0792 1.7450 0.0792
v 0.0000 1.7450 0.1120
v -0.0792 1.7450 0.0792
v -0.1120 1.7450 0.0000
v -0.0792 1.7450 -0.0792
v -0.0000 1.7450 -0.1120
v 0.0792 1.7450 -0.0792
v 0.1120 1.9410 0.0000
v 0.0792 1.9410 0.0792
v 0.0000 1.9410 0.1120
v -0.0792 1.9410 0.0792
v -0.1120 1.9410 0.0000
v -0.0792 1.9410 -0.0792
v -0.0000 1.9410 -0.1120
v 0.0792 1.9410 -0.0792
v 0.0000 1.7450 0.0000
v 0.0000 1.9410 0.0000
f 117 118 126 125
f 118 119 127 126
f 119 120 128 127
f 120 121 129 128
f 121 122 130 129
f 122 123 131 130
f 123 124 132 131
f 124 117 125 132
f 133 117 118
f 134 125 126
f 133 118 119
f 134 126 127
f 133 119 120
f 134 127 128
f 133 120 121
f 134 128 129
f 133 121 122
f 134 129 130
f 133 122 123
f 134 130 131
f 133 123 124
f 134 131 132
f 133 124 117
f 134 132 125
g r_larm
v -0.2940 1.5350 0.0000
v -0.3220 1.5350 0.0485
v -0.3780 1.5350 0.0485
v -0.4060 1.5350 0.0000
v -0.3780 1.5350 -0.0485
v -0.3220 1.5350 -0.0485
v -0.2940 1.9200 0.0000
v -0.3220 1.9200 0.0485
v -0.3780 1.9200 0.0485
v -0.4060 1.9200 0.0000
v -0.3780 1.9200 -0.0485
v -0.3220 1.9200 -0.0485
v -0.3500 1.5350 0.0000
v -0.3500 1.9200 0.0000
f 135 136 142 141
f 136 137 143 142
f 137 138 144 143
f 138 139 145 144
f 139 140 146 145
f 140 135 141 146
f 147 135 136
f 148 141 142
f 147 136 137
f 148 142 143
f 147 137 138
f 148 143 144
f 147 138 139
f 148 144 145
f 147 139 140
f 148 145 146
f 147 140 135
f 148 146 141
g r_rarm
v 0.4060 1.5350 0.0000
v 0.3780 1.5350 0.0485
v 0.3220 1.5350 0.0485
v 0.2940 1.5350 0.0000
v 0.3220 1.5350 -0.0485
v 0.3780 1.5350 -0.0485
v 0.4060 1.9200 0.0000
v 0.3780 1.9200 0.0485
v 0.3220 1.9200 0.0485
v 0.2940 1.9200 0.0000
v 0.3220 1.9200 -0.0485
v 0.3780 1.9200 -0.0485
v 0.3500 1.5350 0.0000
v 0.3500 1.9200 0.0000
f 149 150 156 155
f 150 151 157 156
f 151 152 158 157
f 152 153 159 158
f 153 154 160 159
f 154 149 155 160
f 161 149 150
f 162 155 156
f 161 150 151
f 162 156 157
f 161 151 152
f 162 157 158
f 161 152 153
f 162 158 159
f 161 153 154
f 162 159 160
f 161 154 149
f 162 160 155
