# Open BFME authored multi-part mesh
o g_fortress
g keep
v -4.0000 0.0000 -4.0000
v 4.0000 0.0000 -4.0000
v 4.0000 0.0000 4.0000
v -4.0000 0.0000 4.0000
v -4.0000 4.0000 -4.0000
v 4.0000 4.0000 -4.0000
v 4.0000 4.0000 4.0000
v -4.0000 4.0000 4.0000
f 1 2 3 4
f 5 6 7 8
f 1 2 6 5
f 2 3 7 6
f 3 4 8 7
f 4 1 5 8
g tower0
v -2.7000 4.0000 -3.5000
v -2.9343 4.0000 -2.9343
v -3.5000 4.0000 -2.7000
v -4.0657 4.0000 -2.9343
v -4.3000 4.0000 -3.5000
v -4.0657 4.0000 -4.0657
v -3.5000 4.0000 -4.3000
v -2.9343 4.0000 -4.0657
v -2.7000 8.0000 -3.5000
v -2.9343 8.0000 -2.9343
v -3.5000 8.0000 -2.7000
v -4.0657 8.0000 -2.9343
v -4.3000 8.0000 -3.5000
v -4.0657 8.0000 -4.0657
v -3.5000 8.0000 -4.3000
v -2.9343 8.0000 -4.0657
v -3.5000 4.0000 -3.5000
v -3.5000 8.0000 -3.5000
f 9 10 18 17
f 10 11 19 18
f 11 12 20 19
f 12 13 21 20
f 13 14 22 21
f 14 15 23 22
f 15 16 24 23
f 16 9 17 24
f 25 9 10
f 26 17 18
f 25 10 11
f 26 18 19
f 25 11 12
f 26 19 20
f 25 12 13
f 26 20 21
f 25 13 14
f 26 21 22
f 25 14 15
f 26 22 23
f 25 15 16
f 26 23 24
f 25 16 9
f 26 24 17
g cap0
v -4.4000 8.0000 -4.4000
v -2.6000 8.0000 -4.4000
v -2.6000 8.0000 -2.6000
v -4.4000 8.0000 -2.6000
v -4.4000 9.2000 -4.4000
v -2.6000 9.2000 -4.4000
v -2.6000 9.2000 -2.6000
v -4.4000 9.2000 -2.6000
f 27 28 29 30
f 31 32 33 34
f 27 28 32 31
f 28 29 33 32
f 29 30 34 33
f 30 27 31 34
g tower1
v 4.3000 4.0000 -3.5000
v 4.0657 4.0000 -2.9343
v 3.5000 4.0000 -2.7000
v 2.9343 4.0000 -2.9343
v 2.7000 4.0000 -3.5000
v 2.9343 4.0000 -4.0657
v 3.5000 4.0000 -4.3000
v 4.0657 4.0000 -4.0657
v 4.3000 8.0000 -3.5000
v 4.0657 8.0000 -2.9343
v 3.5000 8.0000 -2.7000
v 2.9343 8.0000 -2.9343
v 2.7000 8.0000 -3.5000
v 2.9343 8.0000 -4.0657
v 3.5000 8.0000 -4.3000
v 4.0657 8.0000 -4.0657
v 3.5000 4.0000 -3.5000
v 3.5000 8.0000 -3.5000
f 35 36 44 43
f 36 37 45 44
f 37 38 46 45
f 38 39 47 46
f 39 40 48 47
f 40 41 49 48
f 41 42 50 49
f 42 35 43 50
f 51 35 36
f 52 43 44
f 51 36 37
f 52 44 45
f 51 37 38
f 52 45 46
f 51 38 39
f 52 46 47
f 51 39 40
f 52 47 48
f 51 40 41
f 52 48 49
f 51 41 42
f 52 49 50
f 51 42 35
f 52 50 43
g cap1
v 2.6000 8.0000 -4.4000
v 4.4000 8.0000 -4.4000
v 4.4000 8.0000 -2.6000
v 2.6000 8.0000 -2.6000
v 2.6000 9.2000 -4.4000
v 4.4000 9.2000 -4.4000
v 4.4000 9.2000 -2.6000
v 2.6000 9.2000 -2.6000
f 53 54 55 56
f 57 58 59 60
f 53 54 58 57
f 54 55 59 58
f 55 56 60 59
f 56 53 57 60
g tower2
v -2.7000 4.0000 3.5000
v -2.9343 4.0000 4.0657
v -3.5000 4.0000 4.3000
v -4.0657 4.0000 4.0657
v -4.3000 4.0000 3.5000
v -4.0657 4.0000 2.9343
v -3.5000 4.0000 2.7000
v -2.9343 4.0000 2.9343
v -2.7000 8.0000 3.5000
v -2.9343 8.0000 4.0657
v -3.5000 8.0000 4.3000
v -4.0657 8.0000 4.0657
v -4.3000 8.0000 3.5000
v -4.0657 8.0000 2.9343
v -3.5000 8.0000 2.7000
v -2.9343 8.0000 2.9343
v -3.5000 4.0000 3.5000
v -3.5000 8.0000 3.5000
f 61 62 70 69
f 62 63 71 70
f 63 64 72 71
f 64 65 73 72
f 65 66 74 73
f 66 67 75 74
f 67 68 76 75
f 68 61 69 76
f 77 61 62
f 78 69 70
f 77 62 63
f 78 70 71
f 77 63 64
f 78 71 72
f 77 64 65
f 78 72 73
f 77 65 66
f 78 73 74
f 77 66 67
f 78 74 75
f 77 67 68
f 78 75 76
f 77 68 61
f 78 76 69
g cap2
v -4.4000 8.0000 2.6000
v -2.6000 8.0000 2.6000
v -2.6000 8.0000 4.4000
v -4.4000 8.0000 4.4000
v -4.4000 9.2000 2.6000
v -2.6000 9.2000 2.6000
v -2.6000 9.2000 4.4000
v -4.4000 9.2000 4.4000
f 79 80 81 82
f 83 84 85 86
f 79 80 84 83
f 80 81 85 84
f 81 82 86 85
f 82 79 83 86
g tower3
v 4.3000 4.0000 3.5000
v 4.0657 4.0000 4.0657
v 3.5000 4.0000 4.3000
v 2.9343 4.0000 4.0657
v 2.7000 4.0000 3.5000
v 2.9343 4.0000 2.9343
v 3.5000 4.0000 2.7000
v 4.0657 4.0000 2.9343
v 4.3000 8.0000 3.5000
v 4.0657 8.0000 4.0657
v 3.5000 8.0000 4.3000
v 2.9343 8.0000 4.0657
v 2.7000 8.0000 3.5000
v 2.9343 8.0000 2.9343
v 3.5000 8.0000 2.7000
v 4.0657 8.0000 2.9343
v 3.5000 4.0000 3.5000
v 3.5000 8.0000 3.5000
f 87 88 96 95
f 88 89 97 96
f 89 90 98 97
f 90 91 99 98
f 91 92 100 99
f 92 93 101 100
f 93 94 102 101
f 94 87 95 102
f 103 87 88
f 104 95 96
f 103 88 89
f 104 96 97
f 103 89 90
f 104 97 98
f 103 90 91
f 104 98 99
f 103 91 92
f 104 99 100
f 103 92 93
f 104 100 101
f 103 93 94
f 104 101 102
f 103 94 87
f 104 102 95
g cap3
v 2.6000 8.0000 2.6000
v 4.4000 8.0000 2.6000
v 4.4000 8.0000 4.4000
v 2.6000 8.0000 4.4000
v 2.6000 9.2000 2.6000
v 4.4000 9.2000 2.6000
v 4.4000 9.2000 4.4000
v 2.6000 9.2000 4.4000
f 105 106 107 108
f 109 110 111 112
f 105 106 110 109
f 106 107 111 110
f 107 108 112 111
f 108 105 109 112
g gatehouse
v -1.2500 4.0000 -4.6000
v 1.2500 4.0000 -4.6000
v 1.2500 4.0000 -3.4000
v -1.2500 4.0000 -3.4000
v -1.2500 7.0000 -4.6000
v 1.2500 7.0000 -4.6000
v 1.2500 7.0000 -3.4000
v -1.2500 7.0000 -3.4000
f 113 114 115 116
f 117 118 119 120
f 113 114 118 117
f 114 115 119 118
f 115 116 120 119
f 116 113 117 120
