# Open BFME authored multi-part mesh
o gob_trollcage
g base
v -3.0000 0.0000 -2.4000
v 3.0000 0.0000 -2.4000
v 3.0000 0.0000 2.4000
v -3.0000 0.0000 2.4000
v -3.0000 3.0000 -2.4000
v 3.0000 3.0000 -2.4000
v 3.0000 3.0000 2.4000
v -3.0000 3.0000 2.4000
f 1 2 3 4
f 5 6 7 8
f 1 2 6 5
f 2 3 7 6
f 3 4 8 7
f 4 1 5 8
g roof
v -3.3000 3.0000 -2.7000
v 3.3000 3.0000 -2.7000
v 3.3000 3.0000 2.7000
v -3.3000 3.0000 2.7000
v -3.3000 3.4800 -2.7000
v 3.3000 3.4800 -2.7000
v 3.3000 3.4800 2.7000
v -3.3000 3.4800 2.7000
f 9 10 11 12
f 13 14 15 16
f 9 10 14 13
f 10 11 15 14
f 11 12 16 15
f 12 9 13 16
g chimney
v 2.2200 3.4800 1.2000
v 2.0970 3.4800 1.4970
v 1.8000 3.4800 1.6200
v 1.5030 3.4800 1.4970
v 1.3800 3.4800 1.2000
v 1.5030 3.4800 0.9030
v 1.8000 3.4800 0.7800
v 2.0970 3.4800 0.9030
v 2.2200 5.2800 1.2000
v 2.0970 5.2800 1.4970
v 1.8000 5.2800 1.6200
v 1.5030 5.2800 1.4970
v 1.3800 5.2800 1.2000
v 1.5030 5.2800 0.9030
v 1.8000 5.2800 0.7800
v 2.0970 5.2800 0.9030
v 1.8000 3.4800 1.2000
v 1.8000 5.2800 1.2000
f 17 18 26 25
f 18 19 27 26
f 19 20 28 27
f 20 21 29 28
f 21 22 30 29
f 22 23 31 30
f 23 24 32 31
f 24 17 25 32
f 33 17 18
f 34 25 26
f 33 18 19
f 34 26 27
f 33 19 20
f 34 27 28
f 33 20 21
f 34 28 29
f 33 21 22
f 34 29 30
f 33 22 23
f 34 30 31
f 33 23 24
f 34 31 32
f 33 24 17
f 34 32 25
g bars
v -2.0000 1.0000 2.0500
v 2.0000 1.0000 2.0500
v 2.0000 1.0000 2.3500
v -2.0000 1.0000 2.3500
v -2.0000 4.0000 2.0500
v 2.0000 4.0000 2.0500
v 2.0000 4.0000 2.3500
v -2.0000 4.0000 2.3500
f 35 36 37 38
f 39 40 41 42
f 35 36 40 39
f 36 37 41 40
f 37 38 42 41
f 38 35 39 42
