# Open BFME authored
o gwell
g base
v -2.0000 0.0000 -2.0000
v 2.0000 0.0000 -2.0000
v 2.0000 0.0000 2.0000
v -2.0000 0.0000 2.0000
v -2.0000 2.5000 -2.0000
v 2.0000 2.5000 -2.0000
v 2.0000 2.5000 2.0000
v -2.0000 2.5000 2.0000
f 1 2 3 4
f 5 6 7 8
f 1 2 6 5
f 2 3 7 6
f 3 4 8 7
f 4 1 5 8
g roof
v -2.2500 2.5000 -2.2500
v 2.2500 2.5000 -2.2500
v 2.2500 2.5000 2.2500
v -2.2500 2.5000 2.2500
v -2.2500 3.0000 -2.2500
v 2.2500 3.0000 -2.2500
v 2.2500 3.0000 2.2500
v -2.2500 3.0000 2.2500
f 9 10 11 12
f 13 14 15 16
f 9 10 14 13
f 10 11 15 14
f 11 12 16 15
f 12 9 13 16
g top
v 0.5000 3.0000 0.0000
v 0.3536 3.0000 0.3536
v 0.0000 3.0000 0.5000
v -0.3536 3.0000 0.3536
v -0.5000 3.0000 0.0000
v -0.3536 3.0000 -0.3536
v -0.0000 3.0000 -0.5000
v 0.3536 3.0000 -0.3536
v 0.5000 4.5000 0.0000
v 0.3536 4.5000 0.3536
v 0.0000 4.5000 0.5000
v -0.3536 4.5000 0.3536
v -0.5000 4.5000 0.0000
v -0.3536 4.5000 -0.3536
v -0.0000 4.5000 -0.5000
v 0.3536 4.5000 -0.3536
v 0.0000 3.0000 0.0000
v 0.0000 4.5000 0.0000
f 17 18 26 25
f 18 19 27 26
f 19 20 28 27
f 20 21 29 28
f 21 22 30 29
f 22 23 31 30
f 23 24 32 31
f 24 17 25 32
f 33 17 18
f 34 25 26
f 33 18 19
f 34 26 27
f 33 19 20
f 34 27 28
f 33 20 21
f 34 28 29
f 33 21 22
f 34 29 30
f 33 22 23
f 34 30 31
f 33 23 24
f 34 31 32
f 33 24 17
f 34 32 25
