# Open BFME authored mesh
o mallorntree
g trunk
v 0.8000 0.0000 0.0000
v 0.6928 0.0000 0.4000
v 0.4000 0.0000 0.6928
v 0.0000 0.0000 0.8000
v -0.4000 0.0000 0.6928
v -0.6928 0.0000 0.4000
v -0.8000 0.0000 0.0000
v -0.6928 0.0000 -0.4000
v -0.4000 0.0000 -0.6928
v -0.0000 0.0000 -0.8000
v 0.4000 0.0000 -0.6928
v 0.6928 0.0000 -0.4000
v 0.8000 6.0000 0.0000
v 0.6928 6.0000 0.4000
v 0.4000 6.0000 0.6928
v 0.0000 6.0000 0.8000
v -0.4000 6.0000 0.6928
v -0.6928 6.0000 0.4000
v -0.8000 6.0000 0.0000
v -0.6928 6.0000 -0.4000
v -0.4000 6.0000 -0.6928
v -0.0000 6.0000 -0.8000
v 0.4000 6.0000 -0.6928
v 0.6928 6.0000 -0.4000
v 0.0000 0.0000 0.0000
v 0.0000 6.0000 0.0000
f 1 2 14 13
f 2 3 15 14
f 3 4 16 15
f 4 5 17 16
f 5 6 18 17
f 6 7 19 18
f 7 8 20 19
f 8 9 21 20
f 9 10 22 21
f 10 11 23 22
f 11 12 24 23
f 12 1 13 24
f 25 1 2
f 26 13 14
f 25 2 3
f 26 14 15
f 25 3 4
f 26 15 16
f 25 4 5
f 26 16 17
f 25 5 6
f 26 17 18
f 25 6 7
f 26 18 19
f 25 7 8
f 26 19 20
f 25 8 9
f 26 20 21
f 25 9 10
f 26 21 22
f 25 10 11
f 26 22 23
f 25 11 12
f 26 23 24
f 25 12 1
f 26 24 13
g canopy
v -2.5000 5.5000 -2.5000
v 2.5000 5.5000 -2.5000
v 2.5000 5.5000 2.5000
v -2.5000 5.5000 2.5000
v -2.5000 8.0000 -2.5000
v 2.5000 8.0000 -2.5000
v 2.5000 8.0000 2.5000
v -2.5000 8.0000 2.5000
f 27 28 29 30
f 31 32 33 34
f 27 28 32 31
f 28 29 33 32
f 29 30 34 33
f 30 27 31 34
g canopy2
v -1.7500 7.0000 -1.7500
v 1.7500 7.0000 -1.7500
v 1.7500 7.0000 1.7500
v -1.7500 7.0000 1.7500
v -1.7500 8.5000 -1.7500
v 1.7500 8.5000 -1.7500
v 1.7500 8.5000 1.7500
v -1.7500 8.5000 1.7500
f 35 36 37 38
f 39 40 41 42
f 35 36 40 39
f 36 37 41 40
f 37 38 42 41
f 38 35 39 42
