# Open BFME authored
o mfortress
g keep
v -5.0000 0.0000 -5.0000
v 5.0000 0.0000 -5.0000
v 5.0000 0.0000 5.0000
v -5.0000 0.0000 5.0000
v -5.0000 5.0000 -5.0000
v 5.0000 5.0000 -5.0000
v 5.0000 5.0000 5.0000
v -5.0000 5.0000 5.0000
f 1 2 3 4
f 5 6 7 8
f 1 2 6 5
f 2 3 7 6
f 3 4 8 7
f 4 1 5 8
g t0
v -3.0000 5.0000 -4.0000
v -3.1910 5.0000 -3.4122
v -3.6910 5.0000 -3.0489
v -4.3090 5.0000 -3.0489
v -4.8090 5.0000 -3.4122
v -5.0000 5.0000 -4.0000
v -4.8090 5.0000 -4.5878
v -4.3090 5.0000 -4.9511
v -3.6910 5.0000 -4.9511
v -3.1910 5.0000 -4.5878
v -3.0000 10.0000 -4.0000
v -3.1910 10.0000 -3.4122
v -3.6910 10.0000 -3.0489
v -4.3090 10.0000 -3.0489
v -4.8090 10.0000 -3.4122
v -5.0000 10.0000 -4.0000
v -4.8090 10.0000 -4.5878
v -4.3090 10.0000 -4.9511
v -3.6910 10.0000 -4.9511
v -3.1910 10.0000 -4.5878
v -4.0000 5.0000 -4.0000
v -4.0000 10.0000 -4.0000
f 9 10 20 19
f 10 11 21 20
f 11 12 22 21
f 12 13 23 22
f 13 14 24 23
f 14 15 25 24
f 15 16 26 25
f 16 17 27 26
f 17 18 28 27
f 18 9 19 28
f 29 9 10
f 30 19 20
f 29 10 11
f 30 20 21
f 29 11 12
f 30 21 22
f 29 12 13
f 30 22 23
f 29 13 14
f 30 23 24
f 29 14 15
f 30 24 25
f 29 15 16
f 30 25 26
f 29 16 17
f 30 26 27
f 29 17 18
f 30 27 28
f 29 18 9
f 30 28 19
g c0
v -5.1000 10.0000 -5.1000
v -2.9000 10.0000 -5.1000
v -2.9000 10.0000 -2.9000
v -5.1000 10.0000 -2.9000
v -5.1000 11.4000 -5.1000
v -2.9000 11.4000 -5.1000
v -2.9000 11.4000 -2.9000
v -5.1000 11.4000 -2.9000
f 31 32 33 34
f 35 36 37 38
f 31 32 36 35
f 32 33 37 36
f 33 34 38 37
f 34 31 35 38
g t1
v 5.0000 5.0000 -4.0000
v 4.8090 5.0000 -3.4122
v 4.3090 5.0000 -3.0489
v 3.6910 5.0000 -3.0489
v 3.1910 5.0000 -3.4122
v 3.0000 5.0000 -4.0000
v 3.1910 5.0000 -4.5878
v 3.6910 5.0000 -4.9511
v 4.3090 5.0000 -4.9511
v 4.8090 5.0000 -4.5878
v 5.0000 10.0000 -4.0000
v 4.8090 10.0000 -3.4122
v 4.3090 10.0000 -3.0489
v 3.6910 10.0000 -3.0489
v 3.1910 10.0000 -3.4122
v 3.0000 10.0000 -4.0000
v 3.1910 10.0000 -4.5878
v 3.6910 10.0000 -4.9511
v 4.3090 10.0000 -4.9511
v 4.8090 10.0000 -4.5878
v 4.0000 5.0000 -4.0000
v 4.0000 10.0000 -4.0000
f 39 40 50 49
f 40 41 51 50
f 41 42 52 51
f 42 43 53 52
f 43 44 54 53
f 44 45 55 54
f 45 46 56 55
f 46 47 57 56
f 47 48 58 57
f 48 39 49 58
f 59 39 40
f 60 49 50
f 59 40 41
f 60 50 51
f 59 41 42
f 60 51 52
f 59 42 43
f 60 52 53
f 59 43 44
f 60 53 54
f 59 44 45
f 60 54 55
f 59 45 46
f 60 55 56
f 59 46 47
f 60 56 57
f 59 47 48
f 60 57 58
f 59 48 39
f 60 58 49
g c1
v 2.9000 10.0000 -5.1000
v 5.1000 10.0000 -5.1000
v 5.1000 10.0000 -2.9000
v 2.9000 10.0000 -2.9000
v 2.9000 11.4000 -5.1000
v 5.1000 11.4000 -5.1000
v 5.1000 11.4000 -2.9000
v 2.9000 11.4000 -2.9000
f 61 62 63 64
f 65 66 67 68
f 61 62 66 65
f 62 63 67 66
f 63 64 68 67
f 64 61 65 68
g t2
v -3.0000 5.0000 4.0000
v -3.1910 5.0000 4.5878
v -3.6910 5.0000 4.9511
v -4.3090 5.0000 4.9511
v -4.8090 5.0000 4.5878
v -5.0000 5.0000 4.0000
v -4.8090 5.0000 3.4122
v -4.3090 5.0000 3.0489
v -3.6910 5.0000 3.0489
v -3.1910 5.0000 3.4122
v -3.0000 10.0000 4.0000
v -3.1910 10.0000 4.5878
v -3.6910 10.0000 4.9511
v -4.3090 10.0000 4.9511
v -4.8090 10.0000 4.5878
v -5.0000 10.0000 4.0000
v -4.8090 10.0000 3.4122
v -4.3090 10.0000 3.0489
v -3.6910 10.0000 3.0489
v -3.1910 10.0000 3.4122
v -4.0000 5.0000 4.0000
v -4.0000 10.0000 4.0000
f 69 70 80 79
f 70 71 81 80
f 71 72 82 81
f 72 73 83 82
f 73 74 84 83
f 74 75 85 84
f 75 76 86 85
f 76 77 87 86
f 77 78 88 87
f 78 69 79 88
f 89 69 70
f 90 79 80
f 89 70 71
f 90 80 81
f 89 71 72
f 90 81 82
f 89 72 73
f 90 82 83
f 89 73 74
f 90 83 84
f 89 74 75
f 90 84 85
f 89 75 76
f 90 85 86
f 89 76 77
f 90 86 87
f 89 77 78
f 90 87 88
f 89 78 69
f 90 88 79
g c2
v -5.1000 10.0000 2.9000
v -2.9000 10.0000 2.9000
v -2.9000 10.0000 5.1000
v -5.1000 10.0000 5.1000
v -5.1000 11.4000 2.9000
v -2.9000 11.4000 2.9000
v -2.9000 11.4000 5.1000
v -5.1000 11.4000 5.1000
f 91 92 93 94
f 95 96 97 98
f 91 92 96 95
f 92 93 97 96
f 93 94 98 97
f 94 91 95 98
g t3
v 5.0000 5.0000 4.0000
v 4.8090 5.0000 4.5878
v 4.3090 5.0000 4.9511
v 3.6910 5.0000 4.9511
v 3.1910 5.0000 4.5878
v 3.0000 5.0000 4.0000
v 3.1910 5.0000 3.4122
v 3.6910 5.0000 3.0489
v 4.3090 5.0000 3.0489
v 4.8090 5.0000 3.4122
v 5.0000 10.0000 4.0000
v 4.8090 10.0000 4.5878
v 4.3090 10.0000 4.9511
v 3.6910 10.0000 4.9511
v 3.1910 10.0000 4.5878
v 3.0000 10.0000 4.0000
v 3.1910 10.0000 3.4122
v 3.6910 10.0000 3.0489
v 4.3090 10.0000 3.0489
v 4.8090 10.0000 3.4122
v 4.0000 5.0000 4.0000
v 4.0000 10.0000 4.0000
f 99 100 110 109
f 100 101 111 110
f 101 102 112 111
f 102 103 113 112
f 103 104 114 113
f 104 105 115 114
f 105 106 116 115
f 106 107 117 116
f 107 108 118 117
f 108 99 109 118
f 119 99 100
f 120 109 110
f 119 100 101
f 120 110 111
f 119 101 102
f 120 111 112
f 119 102 103
f 120 112 113
f 119 103 104
f 120 113 114
f 119 104 105
f 120 114 115
f 119 105 106
f 120 115 116
f 119 106 107
f 120 116 117
f 119 107 108
f 120 117 118
f 119 108 99
f 120 118 109
g c3
v 2.9000 10.0000 2.9000
v 5.1000 10.0000 2.9000
v 5.1000 10.0000 5.1000
v 2.9000 10.0000 5.1000
v 2.9000 11.4000 2.9000
v 5.1000 11.4000 2.9000
v 5.1000 11.4000 5.1000
v 2.9000 11.4000 5.1000
f 121 122 123 124
f 125 126 127 128
f 121 122 126 125
f 122 123 127 126
f 123 124 128 127
f 124 121 125 128
g gate
v -1.7500 0.0000 -5.9500
v 1.7500 0.0000 -5.9500
v 1.7500 0.0000 -4.4500
v -1.7500 0.0000 -4.4500
v -1.7500 4.0000 -5.9500
v 1.7500 4.0000 -5.9500
v 1.7500 4.0000 -4.4500
v -1.7500 4.0000 -4.4500
f 129 130 131 132
f 133 134 135 136
f 129 130 134 133
f 130 131 135 134
f 131 132 136 135
f 132 129 133 136
