# Open BFME authored multi-part mesh
o sacredgrove
g base
v -2.7500 0.0000 -2.2000
v 2.7500 0.0000 -2.2000
v 2.7500 0.0000 2.2000
v -2.7500 0.0000 2.2000
v -2.7500 2.7500 -2.2000
v 2.7500 2.7500 -2.2000
v 2.7500 2.7500 2.2000
v -2.7500 2.7500 2.2000
f 1 2 3 4
f 5 6 7 8
f 1 2 6 5
f 2 3 7 6
f 3 4 8 7
f 4 1 5 8
g roof
v -3.0250 2.7500 -2.4750
v 3.0250 2.7500 -2.4750
v 3.0250 2.7500 2.4750
v -3.0250 2.7500 2.4750
v -3.0250 3.1900 -2.4750
v 3.0250 3.1900 -2.4750
v 3.0250 3.1900 2.4750
v -3.0250 3.1900 2.4750
f 9 10 11 12
f 13 14 15 16
f 9 10 14 13
f 10 11 15 14
f 11 12 16 15
f 12 9 13 16
g chimney
v 2.0350 3.1900 1.1000
v 1.9222 3.1900 1.3722
v 1.6500 3.1900 1.4850
v 1.3778 3.1900 1.3722
v 1.2650 3.1900 1.1000
v 1.3778 3.1900 0.8278
v 1.6500 3.1900 0.7150
v 1.9222 3.1900 0.8278
v 2.0350 4.8400 1.1000
v 1.9222 4.8400 1.3722
v 1.6500 4.8400 1.4850
v 1.3778 4.8400 1.3722
v 1.2650 4.8400 1.1000
v 1.3778 4.8400 0.8278
v 1.6500 4.8400 0.7150
v 1.9222 4.8400 0.8278
v 1.6500 3.1900 1.1000
v 1.6500 4.8400 1.1000
f 17 18 26 25
f 18 19 27 26
f 19 20 28 27
f 20 21 29 28
f 21 22 30 29
f 22 23 31 30
f 23 24 32 31
f 24 17 25 32
f 33 17 18
f 34 25 26
f 33 18 19
f 34 26 27
f 33 19 20
f 34 27 28
f 33 20 21
f 34 28 29
f 33 21 22
f 34 29 30
f 33 22 23
f 34 30 31
f 33 23 24
f 34 31 32
f 33 24 17
f 34 32 25
g tree
v 0.5000 2.5000 0.0000
v 0.4045 2.5000 0.2939
v 0.1545 2.5000 0.4755
v -0.1545 2.5000 0.4755
v -0.4045 2.5000 0.2939
v -0.5000 2.5000 0.0000
v -0.4045 2.5000 -0.2939
v -0.1545 2.5000 -0.4755
v 0.1545 2.5000 -0.4755
v 0.4045 2.5000 -0.2939
v 0.5000 6.5000 0.0000
v 0.4045 6.5000 0.2939
v 0.1545 6.5000 0.4755
v -0.1545 6.5000 0.4755
v -0.4045 6.5000 0.2939
v -0.5000 6.5000 0.0000
v -0.4045 6.5000 -0.2939
v -0.1545 6.5000 -0.4755
v 0.1545 6.5000 -0.4755
v 0.4045 6.5000 -0.2939
v 0.0000 2.5000 0.0000
v 0.0000 6.5000 0.0000
f 35 36 46 45
f 36 37 47 46
f 37 38 48 47
f 38 39 49 48
f 39 40 50 49
f 40 41 51 50
f 41 42 52 51
f 42 43 53 52
f 43 44 54 53
f 44 35 45 54
f 55 35 36
f 56 45 46
f 55 36 37
f 56 46 47
f 55 37 38
f 56 47 48
f 55 38 39
f 56 48 49
f 55 39 40
f 56 49 50
f 55 40 41
f 56 50 51
f 55 41 42
f 56 51 52
f 55 42 43
f 56 52 53
f 55 43 44
f 56 53 54
f 55 44 35
f 56 54 45
