# Open BFME authored multi-part mesh
o spiderpit
g base
v -2.2500 0.0000 -1.8000
v 2.2500 0.0000 -1.8000
v 2.2500 0.0000 1.8000
v -2.2500 0.0000 1.8000
v -2.2500 2.2500 -1.8000
v 2.2500 2.2500 -1.8000
v 2.2500 2.2500 1.8000
v -2.2500 2.2500 1.8000
f 1 2 3 4
f 5 6 7 8
f 1 2 6 5
f 2 3 7 6
f 3 4 8 7
f 4 1 5 8
g roof
v -2.4750 2.2500 -2.0250
v 2.4750 2.2500 -2.0250
v 2.4750 2.2500 2.0250
v -2.4750 2.2500 2.0250
v -2.4750 2.6100 -2.0250
v 2.4750 2.6100 -2.0250
v 2.4750 2.6100 2.0250
v -2.4750 2.6100 2.0250
f 9 10 11 12
f 13 14 15 16
f 9 10 14 13
f 10 11 15 14
f 11 12 16 15
f 12 9 13 16
g chimney
v 1.6650 2.6100 0.9000
v 1.5727 2.6100 1.1227
v 1.3500 2.6100 1.2150
v 1.1273 2.6100 1.1227
v 1.0350 2.6100 0.9000
v 1.1273 2.6100 0.6773
v 1.3500 2.6100 0.5850
v 1.5727 2.6100 0.6773
v 1.6650 3.9600 0.9000
v 1.5727 3.9600 1.1227
v 1.3500 3.9600 1.2150
v 1.1273 3.9600 1.1227
v 1.0350 3.9600 0.9000
v 1.1273 3.9600 0.6773
v 1.3500 3.9600 0.5850
v 1.5727 3.9600 0.6773
v 1.3500 2.6100 0.9000
v 1.3500 3.9600 0.9000
f 17 18 26 25
f 18 19 27 26
f 19 20 28 27
f 20 21 29 28
f 21 22 30 29
f 22 23 31 30
f 23 24 32 31
f 24 17 25 32
f 33 17 18
f 34 25 26
f 33 18 19
f 34 26 27
f 33 19 20
f 34 27 28
f 33 20 21
f 34 28 29
f 33 21 22
f 34 29 30
f 33 22 23
f 34 30 31
f 33 23 24
f 34 31 32
f 33 24 17
f 34 32 25
g body
v -0.6000 0.5000 -0.7500
v 0.6000 0.5000 -0.7500
v 0.6000 0.5000 0.7500
v -0.6000 0.5000 0.7500
v -0.6000 1.1000 -0.7500
v 0.6000 1.1000 -0.7500
v 0.6000 1.1000 0.7500
v -0.6000 1.1000 0.7500
f 35 36 37 38
f 39 40 41 42
f 35 36 40 39
f 36 37 41 40
f 37 38 42 41
f 38 35 39 42
g head
v 0.3500 0.8000 0.9000
v 0.2475 0.8000 1.1475
v 0.0000 0.8000 1.2500
v -0.2475 0.8000 1.1475
v -0.3500 0.8000 0.9000
v -0.2475 0.8000 0.6525
v -0.0000 0.8000 0.5500
v 0.2475 0.8000 0.6525
v 0.3500 1.3000 0.9000
v 0.2475 1.3000 1.1475
v 0.0000 1.3000 1.2500
v -0.2475 1.3000 1.1475
v -0.3500 1.3000 0.9000
v -0.2475 1.3000 0.6525
v -0.0000 1.3000 0.5500
v 0.2475 1.3000 0.6525
v 0.0000 0.8000 0.9000
v 0.0000 1.3000 0.9000
f 43 44 52 51
f 44 45 53 52
f 45 46 54 53
f 46 47 55 54
f 47 48 56 55
f 48 49 57 56
f 49 50 58 57
f 50 43 51 58
f 59 43 44
f 60 51 52
f 59 44 45
f 60 52 53
f 59 45 46
f 60 53 54
f 59 46 47
f 60 54 55
f 59 47 48
f 60 55 56
f 59 48 49
f 60 56 57
f 59 49 50
f 60 57 58
f 59 50 43
f 60 58 51
g leg0
v -0.6600 0.2000 -0.1000
v -0.5400 0.2000 -0.1000
v -0.5400 0.2000 0.9000
v -0.6600 0.2000 0.9000
v -0.6600 0.3200 -0.1000
v -0.5400 0.3200 -0.1000
v -0.5400 0.3200 0.9000
v -0.6600 0.3200 0.9000
f 61 62 63 64
f 65 66 67 68
f 61 62 66 65
f 62 63 67 66
f 63 64 68 67
f 64 61 65 68
g leg1
v -0.2600 0.2000 -0.1000
v -0.1400 0.2000 -0.1000
v -0.1400 0.2000 0.9000
v -0.2600 0.2000 0.9000
v -0.2600 0.3200 -0.1000
v -0.1400 0.3200 -0.1000
v -0.1400 0.3200 0.9000
v -0.2600 0.3200 0.9000
f 69 70 71 72
f 73 74 75 76
f 69 70 74 73
f 70 71 75 74
f 71 72 76 75
f 72 69 73 76
g leg2
v 0.1400 0.2000 -0.1000
v 0.2600 0.2000 -0.1000
v 0.2600 0.2000 0.9000
v 0.1400 0.2000 0.9000
v 0.1400 0.3200 -0.1000
v 0.2600 0.3200 -0.1000
v 0.2600 0.3200 0.9000
v 0.1400 0.3200 0.9000
f 77 78 79 80
f 81 82 83 84
f 77 78 82 81
f 78 79 83 82
f 79 80 84 83
f 80 77 81 84
g leg3
v 0.5400 0.2000 -0.1000
v 0.6600 0.2000 -0.1000
v 0.6600 0.2000 0.9000
v 0.5400 0.2000 0.9000
v 0.5400 0.3200 -0.1000
v 0.6600 0.3200 -0.1000
v 0.6600 0.3200 0.9000
v 0.5400 0.3200 0.9000
f 85 86 87 88
f 89 90 91 92
f 85 86 90 89
f 86 87 91 90
f 87 88 92 91
f 88 85 89 92
g leg4
v -0.6600 0.2000 -0.9000
v -0.5400 0.2000 -0.9000
v -0.5400 0.2000 0.1000
v -0.6600 0.2000 0.1000
v -0.6600 0.3200 -0.9000
v -0.5400 0.3200 -0.9000
v -0.5400 0.3200 0.1000
v -0.6600 0.3200 0.1000
f 93 94 95 96
f 97 98 99 100
f 93 94 98 97
f 94 95 99 98
f 95 96 100 99
f 96 93 97 100
g leg5
v -0.2600 0.2000 -0.9000
v -0.1400 0.2000 -0.9000
v -0.1400 0.2000 0.1000
v -0.2600 0.2000 0.1000
v -0.2600 0.3200 -0.9000
v -0.1400 0.3200 -0.9000
v -0.1400 0.3200 0.1000
v -0.2600 0.3200 0.1000
f 101 102 103 104
f 105 106 107 108
f 101 102 106 105
f 102 103 107 106
f 103 104 108 107
f 104 101 105 108
g leg6
v 0.1400 0.2000 -0.9000
v 0.2600 0.2000 -0.9000
v 0.2600 0.2000 0.1000
v 0.1400 0.2000 0.1000
v 0.1400 0.3200 -0.9000
v 0.2600 0.3200 -0.9000
v 0.2600 0.3200 0.1000
v 0.1400 0.3200 0.1000
f 109 110 111 112
f 113 114 115 116
f 109 110 114 113
f 110 111 115 114
f 111 112 116 115
f 112 109 113 116
g leg7
v 0.5400 0.2000 -0.9000
v 0.6600 0.2000 -0.9000
v 0.6600 0.2000 0.1000
v 0.5400 0.2000 0.1000
v 0.5400 0.3200 -0.9000
v 0.6600 0.3200 -0.9000
v 0.6600 0.3200 0.1000
v 0.5400 0.3200 0.1000
f 117 118 119 120
f 121 122 123 124
f 117 118 122 121
f 118 119 123 122
f 119 120 124 123
f 120 117 121 124
