# Open BFME authored
o spikedgate
g L
v -2.1500 0.0000 -0.6000
v -1.0500 0.0000 -0.6000
v -1.0500 0.0000 0.6000
v -2.1500 0.0000 0.6000
v -2.1500 4.5000 -0.6000
v -1.0500 4.5000 -0.6000
v -1.0500 4.5000 0.6000
v -2.1500 4.5000 0.6000
f 1 2 3 4
f 5 6 7 8
f 1 2 6 5
f 2 3 7 6
f 3 4 8 7
f 4 1 5 8
g R
v 1.0500 0.0000 -0.6000
v 2.1500 0.0000 -0.6000
v 2.1500 0.0000 0.6000
v 1.0500 0.0000 0.6000
v 1.0500 4.5000 -0.6000
v 2.1500 4.5000 -0.6000
v 2.1500 4.5000 0.6000
v 1.0500 4.5000 0.6000
f 9 10 11 12
f 13 14 15 16
f 9 10 14 13
f 10 11 15 14
f 11 12 16 15
f 12 9 13 16
g A
v -1.3000 3.6000 -0.6500
v 1.3000 3.6000 -0.6500
v 1.3000 3.6000 0.6500
v -1.3000 3.6000 0.6500
v -1.3000 4.8000 -0.6500
v 1.3000 4.8000 -0.6500
v 1.3000 4.8000 0.6500
v -1.3000 4.8000 0.6500
f 17 18 19 20
f 21 22 23 24
f 17 18 22 21
f 18 19 23 22
f 19 20 24 23
f 20 17 21 24
g D
v -1.0500 0.0000 -0.1750
v 1.0500 0.0000 -0.1750
v 1.0500 0.0000 0.1750
v -1.0500 0.0000 0.1750
v -1.0500 3.2000 -0.1750
v 1.0500 3.2000 -0.1750
v 1.0500 3.2000 0.1750
v -1.0500 3.2000 0.1750
f 25 26 27 28
f 29 30 31 32
f 25 26 30 29
f 26 27 31 30
f 27 28 32 31
f 28 25 29 32
