# Open BFME authored multi-part mesh
o tower
g shaft
v 1.2000 0.0000 0.0000
v 1.0392 0.0000 0.6000
v 0.6000 0.0000 1.0392
v 0.0000 0.0000 1.2000
v -0.6000 0.0000 1.0392
v -1.0392 0.0000 0.6000
v -1.2000 0.0000 0.0000
v -1.0392 0.0000 -0.6000
v -0.6000 0.0000 -1.0392
v -0.0000 0.0000 -1.2000
v 0.6000 0.0000 -1.0392
v 1.0392 0.0000 -0.6000
v 1.2000 7.0000 0.0000
v 1.0392 7.0000 0.6000
v 0.6000 7.0000 1.0392
v 0.0000 7.0000 1.2000
v -0.6000 7.0000 1.0392
v -1.0392 7.0000 0.6000
v -1.2000 7.0000 0.0000
v -1.0392 7.0000 -0.6000
v -0.6000 7.0000 -1.0392
v -0.0000 7.0000 -1.2000
v 0.6000 7.0000 -1.0392
v 1.0392 7.0000 -0.6000
v 0.0000 0.0000 0.0000
v 0.0000 7.0000 0.0000
f 1 2 14 13
f 2 3 15 14
f 3 4 16 15
f 4 5 17 16
f 5 6 18 17
f 6 7 19 18
f 7 8 20 19
f 8 9 21 20
f 9 10 22 21
f 10 11 23 22
f 11 12 24 23
f 12 1 13 24
f 25 1 2
f 26 13 14
f 25 2 3
f 26 14 15
f 25 3 4
f 26 15 16
f 25 4 5
f 26 16 17
f 25 5 6
f 26 17 18
f 25 6 7
f 26 18 19
f 25 7 8
f 26 19 20
f 25 8 9
f 26 20 21
f 25 9 10
f 26 21 22
f 25 10 11
f 26 22 23
f 25 11 12
f 26 23 24
f 25 12 1
f 26 24 13
g top
v -1.6000 7.0000 -1.6000
v 1.6000 7.0000 -1.6000
v 1.6000 7.0000 1.6000
v -1.6000 7.0000 1.6000
v -1.6000 8.5000 -1.6000
v 1.6000 8.5000 -1.6000
v 1.6000 8.5000 1.6000
v -1.6000 8.5000 1.6000
f 27 28 29 30
f 31 32 33 34
f 27 28 32 31
f 28 29 33 32
f 29 30 34 33
f 30 27 31 34
g merlon0
v -1.4500 8.2000 -1.4500
v -0.9500 8.2000 -1.4500
v -0.9500 8.2000 -0.9500
v -1.4500 8.2000 -0.9500
v -1.4500 9.2000 -1.4500
v -0.9500 9.2000 -1.4500
v -0.9500 9.2000 -0.9500
v -1.4500 9.2000 -0.9500
f 35 36 37 38
f 39 40 41 42
f 35 36 40 39
f 36 37 41 40
f 37 38 42 41
f 38 35 39 42
g merlon1
v 0.9500 8.2000 -1.4500
v 1.4500 8.2000 -1.4500
v 1.4500 8.2000 -0.9500
v 0.9500 8.2000 -0.9500
v 0.9500 9.2000 -1.4500
v 1.4500 9.2000 -1.4500
v 1.4500 9.2000 -0.9500
v 0.9500 9.2000 -0.9500
f 43 44 45 46
f 47 48 49 50
f 43 44 48 47
f 44 45 49 48
f 45 46 50 49
f 46 43 47 50
g merlon2
v -1.4500 8.2000 0.9500
v -0.9500 8.2000 0.9500
v -0.9500 8.2000 1.4500
v -1.4500 8.2000 1.4500
v -1.4500 9.2000 0.9500
v -0.9500 9.2000 0.9500
v -0.9500 9.2000 1.4500
v -1.4500 9.2000 1.4500
f 51 52 53 54
f 55 56 57 58
f 51 52 56 55
f 52 53 57 56
f 53 54 58 57
f 54 51 55 58
g merlon3
v 0.9500 8.2000 0.9500
v 1.4500 8.2000 0.9500
v 1.4500 8.2000 1.4500
v 0.9500 8.2000 1.4500
v 0.9500 9.2000 0.9500
v 1.4500 9.2000 0.9500
v 1.4500 9.2000 1.4500
v 0.9500 9.2000 1.4500
f 59 60 61 62
f 63 64 65 66
f 59 60 64 63
f 60 61 65 64
f 61 62 66 65
f 62 59 63 66
