# Open BFME authored multi-part mesh
o wall
g wall
v -2.0000 0.0000 -0.5000
v 2.0000 0.0000 -0.5000
v 2.0000 0.0000 0.5000
v -2.0000 0.0000 0.5000
v -2.0000 3.5000 -0.5000
v 2.0000 3.5000 -0.5000
v 2.0000 3.5000 0.5000
v -2.0000 3.5000 0.5000
f 1 2 3 4
f 5 6 7 8
f 1 2 6 5
f 2 3 7 6
f 3 4 8 7
f 4 1 5 8
g cren0
v -1.8000 3.5000 -0.5500
v -1.2000 3.5000 -0.5500
v -1.2000 3.5000 0.5500
v -1.8000 3.5000 0.5500
v -1.8000 4.3000 -0.5500
v -1.2000 4.3000 -0.5500
v -1.2000 4.3000 0.5500
v -1.8000 4.3000 0.5500
f 9 10 11 12
f 13 14 15 16
f 9 10 14 13
f 10 11 15 14
f 11 12 16 15
f 12 9 13 16
g cren1
v -0.8000 3.5000 -0.5500
v -0.2000 3.5000 -0.5500
v -0.2000 3.5000 0.5500
v -0.8000 3.5000 0.5500
v -0.8000 4.3000 -0.5500
v -0.2000 4.3000 -0.5500
v -0.2000 4.3000 0.5500
v -0.8000 4.3000 0.5500
f 17 18 19 20
f 21 22 23 24
f 17 18 22 21
f 18 19 23 22
f 19 20 24 23
f 20 17 21 24
g cren2
v 0.2000 3.5000 -0.5500
v 0.8000 3.5000 -0.5500
v 0.8000 3.5000 0.5500
v 0.2000 3.5000 0.5500
v 0.2000 4.3000 -0.5500
v 0.8000 4.3000 -0.5500
v 0.8000 4.3000 0.5500
v 0.2000 4.3000 0.5500
f 25 26 27 28
f 29 30 31 32
f 25 26 30 29
f 26 27 31 30
f 27 28 32 31
f 28 25 29 32
g cren3
v 1.2000 3.5000 -0.5500
v 1.8000 3.5000 -0.5500
v 1.8000 3.5000 0.5500
v 1.2000 3.5000 0.5500
v 1.2000 4.3000 -0.5500
v 1.8000 4.3000 -0.5500
v 1.8000 4.3000 0.5500
v 1.2000 4.3000 0.5500
f 33 34 35 36
f 37 38 39 40
f 33 34 38 37
f 34 35 39 38
f 35 36 40 39
f 36 33 37 40
